<mxfile host="app.diagrams.net" modified="2023-10-05T19:09:27.534Z" agent="Mozilla/5.0 (X11; Linux x86_64) AppleWebKit/537.36 (KHTML, like Gecko) Chrome/117.0.0.0 Safari/537.36 Edg/117.0.2045.47" version="22.0.2" etag="wjv50RexKiMKpWgHRuuE" type="github">
  <diagram name="PÃ¡gina-1" id="pEPGHgpvm97boRn2tmV5">
    <mxGraphModel>
      <root>
        <mxCell id="0" />
        <mxCell id="1" parent="0" />
      </root>
    </mxGraphModel>
  </diagram>
</mxfile>
